# xmcd
#
# Track frame offsets:
#	150
#	20178
#	44846
#	66154
#	90450
#	114138
#	135140
#	154169
#	179074
#	203967
#	222855
#	247131
#	267479
#	289200
#	308925
#
# Disc length: 4429 seconds
#
# Revision: 0
# Processed by: cddbd v1.4PL0 Copyright (c) Steve Scherf et al.
# Submitted via: EasyCDDAExtractor 5.0.2.1
#
DISCID=e8114b0f
DTITLE=張惠妹 - 妹力最精選
DYEAR=2002
DGENRE=
TTITLE0=問
TTITLE1=愛上一個不回家的人
TTITLE2=剪愛
TTITLE3=後知後覺
TTITLE4=一夜情
TTITLE5=夢見鐵達尼
TTITLE6=愛已蔓延
TTITLE7=Open your Eyes
TTITLE8=寂寞保齡球
TTITLE9=當我開始偷偷的想你
TTITLE10=趁早
TTITLE11=三天三夜
TTITLE12=原來你什麼都不想要
TTITLE13=衝動
TTITLE14=孤單Tequila
EXTD=
EXTT0=
EXTT1=
EXTT2=
EXTT3=
EXTT4=
EXTT5=
EXTT6=
EXTT7=
EXTT8=
EXTT9=
EXTT10=
EXTT11=
EXTT12=
EXTT13=
EXTT14=
PLAYORDER=
